<svg width="18" height="19" viewBox="0 0 18 19" fill="none" xmlns="http://www.w3.org/2000/svg">
<path d="M17.28 18.0001H12.9178V12.0273H14.7577H15.1973L15.2536 11.5914L15.6046 8.87565L15.6775 8.31156H15.1088H12.9178V7.07681C12.9178 6.70429 12.9756 6.53073 13.0504 6.44191C13.1088 6.37249 13.2662 6.25381 13.7633 6.25381H15.201H15.2032H15.7032V5.75381V3.32606V2.88908L15.2702 2.83056C14.9948 2.79335 14.1194 2.71806 13.1063 2.71806C11.9675 2.71806 10.9569 3.06745 10.2297 3.78638C9.50088 4.50684 9.112 5.54355 9.112 6.80906V8.31156H7.26525H6.76525V8.81156V11.5296V12.0296H7.26525H9.112V18.0001H0.72C0.597893 18.0001 0.5 17.9022 0.5 17.7801V1.22006C0.5 1.09795 0.597892 1.00006 0.72 1.00006H17.28C17.4021 1.00006 17.5 1.09795 17.5 1.22006V17.7801C17.5 17.9022 17.4021 18.0001 17.28 18.0001Z" fill="#333D42" stroke="#384B54"/>
</svg>
