<svg width="1420" height="326" viewBox="0 0 1420 326" fill="none" xmlns="http://www.w3.org/2000/svg">
<path d="M53.5802 11.5276H126.098L72.518 313.55H0L43.4337 79.7709H107.586L53.5802 11.5276Z" fill="black"/>
<path d="M130.793 313.55L184.373 11.9887H325.714C367.9 11.9887 399.771 26.1292 421.327 54.4102C442.882 82.6912 449.81 119.272 442.112 164.153C434.106 208.726 414.398 244.846 382.989 272.512C351.888 299.871 314.936 313.55 272.134 313.55H130.793ZM215.32 245.307H279.062C303.389 245.307 323.404 238.083 339.109 223.635C354.813 209.187 364.975 188.591 369.594 161.847C374.521 135.411 371.596 115.122 360.818 100.982C350.348 86.5337 332.95 79.3098 308.624 79.3098H244.882L215.32 245.307Z" fill="black"/>
<path d="M518.599 11.9887H753.551L741.542 79.7709H579.108L570.332 129.109H680.88L668.87 196.891H558.323L549.547 245.768H724.811L712.802 313.55H465.019L518.599 11.9887Z" fill="black"/>
<path d="M1042.65 229.629C1037.41 259.755 1021.55 283.425 995.072 300.639C968.898 317.546 936.411 326 897.612 326C861.583 326 832.484 317.7 810.313 301.1C788.45 284.501 775.362 259.755 771.051 226.863L843.569 212.569C851.576 240.85 873.593 254.99 909.621 254.99C926.249 254.99 940.106 252.685 951.192 248.074C962.277 243.463 968.436 237.161 969.668 229.168C970.283 225.787 969.976 222.713 968.744 219.946C967.82 217.18 965.51 214.72 961.815 212.569C958.428 210.417 955.041 208.726 951.654 207.496C948.574 205.959 943.493 204.422 936.411 202.885C929.636 201.348 923.94 200.273 919.321 199.658C915.01 198.736 908.235 197.506 898.997 195.969C897.458 195.969 896.226 195.815 895.302 195.508C820.167 183.212 787.372 150.32 796.918 96.8317C802.153 67.0137 817.703 43.4974 843.569 26.2829C869.744 8.76096 902.384 0 941.492 0C977.212 0 1005.7 7.83875 1026.94 23.5163C1048.5 39.1938 1060.97 62.7101 1064.36 94.0651L992.762 108.359C987.836 83.4597 967.204 71.0099 930.868 71.0099C913.316 71.0099 898.997 73.4691 887.912 78.3875C876.826 82.9986 870.667 89.3003 869.436 97.2928C867.896 106.515 872.515 113.278 883.293 117.581C894.07 121.885 913.47 126.496 941.492 131.414C942.416 131.722 943.031 131.876 943.339 131.876C954.733 134.027 965.049 136.487 974.286 139.253C983.832 142.02 993.532 146.016 1003.39 151.242C1013.55 156.468 1021.71 162.462 1027.87 169.225C1034.03 175.68 1038.64 184.134 1041.72 194.586C1044.8 205.037 1045.11 216.719 1042.65 229.629Z" fill="black"/>
<path d="M1268.04 192.28L1420 11.9887H1338.71L1245.4 122.653L1237.09 143.403H1231.08L1229.7 122.653L1176.12 11.9887H1093.9L1183.05 192.28H1189.51L1167.8 313.55H1240.78L1262.49 192.28H1268.04Z" fill="black"/>
</svg>
