<svg width="1428" height="330" viewBox="0 0 1428 330" fill="none" xmlns="http://www.w3.org/2000/svg">
<g filter="url(#filter0_b_14_82)">
<path d="M56.5802 13.5276H129.098L75.518 315.55H3L46.4337 81.7709H110.586L56.5802 13.5276Z" fill="url(#paint0_linear_14_82)"/>
<path d="M133.793 315.55L187.373 13.9887H328.714C370.9 13.9887 402.771 28.1292 424.327 56.4102C445.882 84.6912 452.81 121.272 445.112 166.153C437.106 210.726 417.398 246.846 385.989 274.512C354.888 301.871 317.936 315.55 275.134 315.55H133.793ZM218.32 247.307H282.062C306.389 247.307 326.404 240.083 342.109 225.635C357.813 211.187 367.975 190.591 372.594 163.847C377.521 137.411 374.596 117.122 363.818 102.982C353.348 88.5337 335.95 81.3098 311.624 81.3098H247.882L218.32 247.307Z" fill="url(#paint1_linear_14_82)"/>
<path d="M521.599 13.9887H756.551L744.542 81.7709H582.108L573.332 131.109H683.88L671.87 198.891H561.323L552.547 247.768H727.811L715.802 315.55H468.019L521.599 13.9887Z" fill="url(#paint2_linear_14_82)"/>
<path d="M1045.65 231.629C1040.41 261.755 1024.55 285.425 998.072 302.639C971.898 319.546 939.411 328 900.612 328C864.583 328 835.484 319.7 813.313 303.1C791.45 286.501 778.362 261.755 774.051 228.863L846.569 214.569C854.576 242.85 876.593 256.99 912.621 256.99C929.249 256.99 943.106 254.685 954.192 250.074C965.277 245.463 971.436 239.161 972.668 231.168C973.283 227.787 972.976 224.713 971.744 221.946C970.82 219.18 968.51 216.72 964.815 214.569C961.428 212.417 958.041 210.726 954.654 209.496C951.574 207.959 946.493 206.422 939.411 204.885C932.636 203.348 926.94 202.273 922.321 201.658C918.01 200.736 911.235 199.506 901.997 197.969C900.458 197.969 899.226 197.815 898.302 197.508C823.167 185.212 790.372 152.32 799.918 98.8317C805.153 69.0137 820.703 45.4974 846.569 28.2829C872.744 10.761 905.384 2 944.492 2C980.212 2 1008.7 9.83875 1029.94 25.5163C1051.5 41.1938 1063.97 64.7101 1067.36 96.0651L995.762 110.359C990.836 85.4597 970.204 73.0099 933.868 73.0099C916.316 73.0099 901.997 75.4691 890.912 80.3875C879.826 84.9986 873.667 91.3003 872.436 99.2928C870.896 108.515 875.515 115.278 886.293 119.581C897.07 123.885 916.47 128.496 944.492 133.414C945.416 133.722 946.031 133.876 946.339 133.876C957.733 136.027 968.049 138.487 977.286 141.253C986.832 144.02 996.532 148.016 1006.39 153.242C1016.55 158.468 1024.71 164.462 1030.87 171.225C1037.03 177.68 1041.64 186.134 1044.72 196.586C1047.8 207.037 1048.11 218.719 1045.65 231.629Z" fill="url(#paint3_linear_14_82)"/>
<path d="M1271.04 194.28L1423 13.9887H1341.71L1248.4 124.653L1240.09 145.403H1234.08L1232.7 124.653L1179.12 13.9887H1096.9L1186.05 194.28H1192.51L1170.8 315.55H1243.78L1265.49 194.28H1271.04Z" fill="url(#paint4_linear_14_82)"/>
<path d="M56.5802 12.5276H54.5135L55.796 14.1481L108.52 80.7709H46.4337H45.6024L45.4505 81.5882L2.01682 315.368L1.7971 316.55H3H75.518H76.3562L76.5026 315.725L130.083 13.7023L130.291 12.5276H129.098H56.5802ZM132.808 315.375L132.6 316.55H133.793H275.134C318.17 316.55 355.359 302.788 386.65 275.263L386.65 275.262C418.243 247.434 438.054 211.106 446.096 166.33L446.098 166.322C453.829 121.249 446.89 84.3638 425.122 55.804C403.341 27.227 371.147 12.9887 328.714 12.9887H187.373H186.535L186.388 13.8137L132.808 315.375ZM371.611 163.664L371.609 163.677C367.017 190.263 356.934 210.637 341.432 224.899C325.938 239.153 306.176 246.307 282.062 246.307H219.514L248.719 82.3098H311.624C335.756 82.3098 352.79 89.4676 363.008 103.568L363.015 103.578L363.023 103.588C373.557 117.41 376.513 137.363 371.611 163.664ZM521.599 12.9887H520.761L520.615 13.8137L467.035 315.375L466.826 316.55H468.019H715.802H716.64L716.786 315.725L728.796 247.942L729.004 246.768H727.811H553.742L562.159 199.891H671.87H672.709L672.855 199.066L684.864 131.283L685.072 130.109H683.88H574.526L582.946 82.7709H744.542H745.381L745.527 81.9453L757.536 14.1631L757.744 12.9887H756.551H521.599ZM998.615 303.479L998.617 303.478C1025.32 286.119 1041.35 262.215 1046.63 231.81C1049.12 218.778 1048.82 206.934 1045.68 196.303C1042.57 185.737 1037.89 177.136 1031.6 170.544C1025.35 163.678 1017.09 157.62 1006.85 152.355C996.944 147.103 987.184 143.081 977.567 140.293C968.292 137.516 957.944 135.049 946.525 132.893L946.433 132.876H946.339C946.341 132.876 946.332 132.876 946.309 132.873C946.286 132.871 946.255 132.867 946.215 132.86L946.181 132.854C946.104 132.841 946.007 132.82 945.889 132.79C945.615 132.722 945.256 132.615 944.807 132.466L944.737 132.442L944.665 132.429C916.641 127.511 897.334 122.914 886.664 118.653C881.385 116.545 877.731 113.88 875.571 110.717C873.428 107.58 872.688 103.853 873.422 99.4575L873.424 99.4451C874.58 91.9461 880.364 85.8581 891.296 81.3108L891.307 81.3063L891.317 81.3016C902.231 76.4593 916.398 74.0099 933.868 74.0099C951.94 74.0099 965.977 77.1088 976.077 83.2034C986.138 89.2743 992.369 98.3632 994.781 110.553L994.976 111.536L995.958 111.34L1067.55 97.0457L1068.45 96.8667L1068.35 95.9577C1064.94 64.3809 1052.36 40.5857 1030.54 24.7116C1009.07 8.86922 980.351 1 944.492 1C905.234 1 872.388 9.79578 846.013 27.4519C819.928 44.8129 804.217 68.5626 798.933 98.656C794.114 125.659 799.977 147.604 816.646 164.323C833.249 180.974 860.45 192.317 898.065 198.482C899.101 198.813 900.396 198.963 901.914 198.969C911.108 200.499 917.837 201.721 922.112 202.636L922.15 202.644L922.189 202.649C926.767 203.258 932.432 204.327 939.19 205.861L939.199 205.863C946.269 207.397 951.246 208.913 954.207 210.391L954.258 210.417L954.312 210.436C957.624 211.639 960.946 213.296 964.279 215.413L964.295 215.423L964.312 215.433C967.893 217.518 969.978 219.814 970.795 222.263L970.811 222.309L970.83 222.353C971.969 224.912 972.269 227.778 971.684 230.989L971.681 231.003L971.679 231.016C970.523 238.515 964.74 244.603 953.808 249.15C942.881 253.695 929.165 255.99 912.621 255.99C894.729 255.99 880.425 252.478 869.627 245.543C858.85 238.621 851.477 228.233 847.532 214.296L847.281 213.409L846.376 213.587L773.858 227.882L772.938 228.063L773.06 228.993C777.398 262.091 790.589 287.103 812.708 303.897L812.713 303.901C835.103 320.664 864.432 329 900.612 329C939.556 329 972.243 320.514 998.615 303.479ZM1271.04 195.28H1271.5L1271.8 194.925L1423.76 14.6332L1425.15 12.9887H1423H1341.71H1341.24L1340.94 13.3441L1247.64 124.009L1247.53 124.132L1247.47 124.282L1239.41 144.403H1235.02L1233.7 124.587L1233.68 124.393L1233.6 124.218L1180.02 13.5529L1179.74 12.9887H1179.12H1096.9H1095.29L1096 14.4319L1185.15 194.723L1185.43 195.28H1186.05H1191.32L1169.82 315.374L1169.61 316.55H1170.8H1243.78H1244.62L1244.77 315.726L1266.33 195.28H1271.04Z" stroke="url(#paint5_linear_14_82)" stroke-opacity="0.08" stroke-width="2"/>
<path d="M56.5802 12.5276H54.5135L55.796 14.1481L108.52 80.7709H46.4337H45.6024L45.4505 81.5882L2.01682 315.368L1.7971 316.55H3H75.518H76.3562L76.5026 315.725L130.083 13.7023L130.291 12.5276H129.098H56.5802ZM132.808 315.375L132.6 316.55H133.793H275.134C318.17 316.55 355.359 302.788 386.65 275.263L386.65 275.262C418.243 247.434 438.054 211.106 446.096 166.33L446.098 166.322C453.829 121.249 446.89 84.3638 425.122 55.804C403.341 27.227 371.147 12.9887 328.714 12.9887H187.373H186.535L186.388 13.8137L132.808 315.375ZM371.611 163.664L371.609 163.677C367.017 190.263 356.934 210.637 341.432 224.899C325.938 239.153 306.176 246.307 282.062 246.307H219.514L248.719 82.3098H311.624C335.756 82.3098 352.79 89.4676 363.008 103.568L363.015 103.578L363.023 103.588C373.557 117.41 376.513 137.363 371.611 163.664ZM521.599 12.9887H520.761L520.615 13.8137L467.035 315.375L466.826 316.55H468.019H715.802H716.64L716.786 315.725L728.796 247.942L729.004 246.768H727.811H553.742L562.159 199.891H671.87H672.709L672.855 199.066L684.864 131.283L685.072 130.109H683.88H574.526L582.946 82.7709H744.542H745.381L745.527 81.9453L757.536 14.1631L757.744 12.9887H756.551H521.599ZM998.615 303.479L998.617 303.478C1025.32 286.119 1041.35 262.215 1046.63 231.81C1049.12 218.778 1048.82 206.934 1045.68 196.303C1042.57 185.737 1037.89 177.136 1031.6 170.544C1025.35 163.678 1017.09 157.62 1006.85 152.355C996.944 147.103 987.184 143.081 977.567 140.293C968.292 137.516 957.944 135.049 946.525 132.893L946.433 132.876H946.339C946.341 132.876 946.332 132.876 946.309 132.873C946.286 132.871 946.255 132.867 946.215 132.86L946.181 132.854C946.104 132.841 946.007 132.82 945.889 132.79C945.615 132.722 945.256 132.615 944.807 132.466L944.737 132.442L944.665 132.429C916.641 127.511 897.334 122.914 886.664 118.653C881.385 116.545 877.731 113.88 875.571 110.717C873.428 107.58 872.688 103.853 873.422 99.4575L873.424 99.4451C874.58 91.9461 880.364 85.8581 891.296 81.3108L891.307 81.3063L891.317 81.3016C902.231 76.4593 916.398 74.0099 933.868 74.0099C951.94 74.0099 965.977 77.1088 976.077 83.2034C986.138 89.2743 992.369 98.3632 994.781 110.553L994.976 111.536L995.958 111.34L1067.55 97.0457L1068.45 96.8667L1068.35 95.9577C1064.94 64.3809 1052.36 40.5857 1030.54 24.7116C1009.07 8.86922 980.351 1 944.492 1C905.234 1 872.388 9.79578 846.013 27.4519C819.928 44.8129 804.217 68.5626 798.933 98.656C794.114 125.659 799.977 147.604 816.646 164.323C833.249 180.974 860.45 192.317 898.065 198.482C899.101 198.813 900.396 198.963 901.914 198.969C911.108 200.499 917.837 201.721 922.112 202.636L922.15 202.644L922.189 202.649C926.767 203.258 932.432 204.327 939.19 205.861L939.199 205.863C946.269 207.397 951.246 208.913 954.207 210.391L954.258 210.417L954.312 210.436C957.624 211.639 960.946 213.296 964.279 215.413L964.295 215.423L964.312 215.433C967.893 217.518 969.978 219.814 970.795 222.263L970.811 222.309L970.83 222.353C971.969 224.912 972.269 227.778 971.684 230.989L971.681 231.003L971.679 231.016C970.523 238.515 964.74 244.603 953.808 249.15C942.881 253.695 929.165 255.99 912.621 255.99C894.729 255.99 880.425 252.478 869.627 245.543C858.85 238.621 851.477 228.233 847.532 214.296L847.281 213.409L846.376 213.587L773.858 227.882L772.938 228.063L773.06 228.993C777.398 262.091 790.589 287.103 812.708 303.897L812.713 303.901C835.103 320.664 864.432 329 900.612 329C939.556 329 972.243 320.514 998.615 303.479ZM1271.04 195.28H1271.5L1271.8 194.925L1423.76 14.6332L1425.15 12.9887H1423H1341.71H1341.24L1340.94 13.3441L1247.64 124.009L1247.53 124.132L1247.47 124.282L1239.41 144.403H1235.02L1233.7 124.587L1233.68 124.393L1233.6 124.218L1180.02 13.5529L1179.74 12.9887H1179.12H1096.9H1095.29L1096 14.4319L1185.15 194.723L1185.43 195.28H1186.05H1191.32L1169.82 315.374L1169.61 316.55H1170.8H1243.78H1244.62L1244.77 315.726L1266.33 195.28H1271.04Z" stroke="url(#paint6_linear_14_82)" stroke-width="2"/>
</g>
<defs>
<filter id="filter0_b_14_82" x="-3.40576" y="-4" width="1434.71" height="338" filterUnits="userSpaceOnUse" color-interpolation-filters="sRGB">
<feFlood flood-opacity="0" result="BackgroundImageFix"/>
<feGaussianBlur in="BackgroundImageFix" stdDeviation="2"/>
<feComposite in2="SourceAlpha" operator="in" result="effect1_backgroundBlur_14_82"/>
<feBlend mode="normal" in="SourceGraphic" in2="effect1_backgroundBlur_14_82" result="shape"/>
</filter>
<linearGradient id="paint0_linear_14_82" x1="713" y1="2" x2="713" y2="328" gradientUnits="userSpaceOnUse">
<stop offset="0.122169" stop-color="#131718"/>
<stop offset="1" stop-color="#1E2326" stop-opacity="0.08"/>
</linearGradient>
<linearGradient id="paint1_linear_14_82" x1="713" y1="2" x2="713" y2="328" gradientUnits="userSpaceOnUse">
<stop offset="0.122169" stop-color="#131718"/>
<stop offset="1" stop-color="#1E2326" stop-opacity="0.08"/>
</linearGradient>
<linearGradient id="paint2_linear_14_82" x1="713" y1="2" x2="713" y2="328" gradientUnits="userSpaceOnUse">
<stop offset="0.122169" stop-color="#131718"/>
<stop offset="1" stop-color="#1E2326" stop-opacity="0.08"/>
</linearGradient>
<linearGradient id="paint3_linear_14_82" x1="713" y1="2" x2="713" y2="328" gradientUnits="userSpaceOnUse">
<stop offset="0.122169" stop-color="#131718"/>
<stop offset="1" stop-color="#1E2326" stop-opacity="0.08"/>
</linearGradient>
<linearGradient id="paint4_linear_14_82" x1="713" y1="2" x2="713" y2="328" gradientUnits="userSpaceOnUse">
<stop offset="0.122169" stop-color="#131718"/>
<stop offset="1" stop-color="#1E2326" stop-opacity="0.08"/>
</linearGradient>
<linearGradient id="paint5_linear_14_82" x1="713" y1="2" x2="713" y2="328" gradientUnits="userSpaceOnUse">
<stop stop-color="white"/>
<stop offset="1" stop-color="white" stop-opacity="0"/>
</linearGradient>
<linearGradient id="paint6_linear_14_82" x1="713" y1="-26" x2="713" y2="350" gradientUnits="userSpaceOnUse">
<stop stop-color="#00FF94" stop-opacity="0.26"/>
<stop offset="0.541667" stop-opacity="0"/>
<stop offset="1" stop-color="#1684EA" stop-opacity="0.31"/>
</linearGradient>
</defs>
</svg>
