<svg width="18" height="19" viewBox="0 0 18 19" fill="none" xmlns="http://www.w3.org/2000/svg">
<g clip-path="url(#clip0_4_17)">
<path d="M12.4345 9.34622C12.4475 9.33959 12.4618 9.33241 12.4782 9.3242C12.5558 9.28542 12.661 9.25093 12.7572 9.24123C12.8667 9.26922 12.9451 9.2916 13.0096 9.31925C13.0344 9.32986 13.0515 9.33903 13.0632 9.34622H12.4345ZM9.26233 9.47698C9.15503 9.33391 9.03363 9.20607 8.89507 9.09336C8.96093 9.02495 9.02044 8.95275 9.07067 8.87741C9.28128 8.56148 9.36233 8.17726 9.36233 7.76929C9.36233 7.40581 9.29545 7.14985 9.23649 6.9242C9.227 6.88788 9.21771 6.85233 9.20894 6.81726L9.18794 6.73323L9.1399 6.66117L9.13412 6.6525C9.06901 6.55482 8.98956 6.43563 8.90661 6.33194C8.83365 6.24074 8.71923 6.11042 8.5646 6.02391C8.30272 5.85388 8.04509 5.77017 7.76902 5.69988C7.3478 5.53837 6.99787 5.53845 6.66793 5.53852C6.66093 5.53852 6.65393 5.53852 6.64695 5.53852H3.46233H2.96233V6.03852V12.8231V13.3231H3.46233H6.78541C7.12689 13.3231 7.5227 13.2407 7.80668 13.1697C8.15165 13.0835 8.48091 12.9168 8.7243 12.7545C8.99326 12.5752 9.26506 12.3049 9.44801 11.9391L9.4639 11.9073L9.47514 11.8736C9.55574 11.6317 9.63926 11.2999 9.63926 10.8847C9.63926 10.4056 9.55752 9.9638 9.29108 9.51974L9.27781 9.49762L9.26233 9.47698ZM6.57772 11.1462H5.48541V10.277H6.57772C6.86021 10.277 7.02947 10.3337 7.12919 10.3994C7.13283 10.4041 7.14093 10.417 7.15049 10.4457C7.17013 10.5046 7.18541 10.6009 7.18541 10.7462C7.18541 10.8205 7.18477 10.8586 7.18062 10.8919C7.17841 10.9095 7.17567 10.9207 7.17302 10.9283C7.16979 10.9314 7.16483 10.9359 7.15762 10.9419C7.14542 10.9521 7.13479 10.9602 7.11769 10.9734C7.11152 10.9781 7.1045 10.9835 7.09627 10.9899C7.07518 11.0062 7.03671 11.0359 6.9983 11.0727L6.99518 11.0741C6.99383 11.0747 6.99257 11.0752 6.99142 11.0756C6.98977 11.0762 6.98835 11.0767 6.98723 11.077H6.87507L6.7695 11.1298C6.76227 11.1334 6.75046 11.138 6.72339 11.1414C6.69014 11.1456 6.65201 11.1462 6.57772 11.1462ZM7.12712 10.3973C7.12715 10.3971 7.12779 10.3977 7.12893 10.3991C7.12767 10.398 7.1271 10.3974 7.12712 10.3973ZM6.73467 7.73241C6.7698 7.74374 6.80775 7.75439 6.83164 7.76109L6.90395 7.8334C6.90788 7.86617 6.90849 7.90424 6.90849 7.97698C6.90849 8.06117 6.87384 8.13825 6.81038 8.21176C6.68842 8.28468 6.58953 8.30775 6.50849 8.30775H5.48541V7.71545H6.68513C6.70262 7.72181 6.7192 7.72742 6.73467 7.73241ZM10.8546 7.14622V7.64622H11.3347C11.0932 7.79033 10.8622 7.96355 10.6576 8.11706L10.6393 8.13083L10.6108 8.15215L10.5857 8.17728C10.3528 8.41017 10.0796 8.75633 9.97441 9.21657C9.82462 9.6042 9.74695 9.99955 9.74695 10.4001C9.74695 10.7842 9.81946 11.2736 9.99757 11.6421C10.1388 11.993 10.3068 12.3439 10.5857 12.6228C10.8274 12.8645 11.1474 13.1054 11.4772 13.2704L11.4958 13.2797L11.5151 13.2874C11.9157 13.4476 12.3247 13.5308 12.7393 13.5308C13.3806 13.5308 13.9641 13.3691 14.4705 13.0315C15.0021 12.677 15.3313 12.1581 15.5613 11.5449L15.8146 10.8693H15.6623V10.677L15.6623 10.652C15.6624 10.2554 15.6624 9.86629 15.5834 9.47123C15.5082 9.09527 15.3498 8.65098 15.0573 8.3425C14.8217 8.03754 14.5254 7.80745 14.2301 7.64622H14.6239V7.14622V6.45391V5.95391H14.1239H11.3546H10.8546V6.45391V7.14622ZM12.2362 11.177H13.4532C13.4273 11.2279 13.4129 11.2532 13.395 11.277C13.3781 11.2995 13.3508 11.3299 13.2927 11.3687C13.1645 11.4541 13.0528 11.4924 12.8777 11.4924C12.5933 11.4924 12.426 11.4355 12.3516 11.3794C12.3074 11.3163 12.2685 11.2489 12.2362 11.177ZM17.5008 3.89237V15.1078C17.5008 16.7008 16.2016 18.0001 14.6085 18.0001H3.3931C1.80001 18.0001 0.500793 16.7008 0.500793 15.1078V3.89237C0.500793 2.29928 1.80001 1.00006 3.3931 1.00006H14.6085C16.2016 1.00006 17.5008 2.29928 17.5008 3.89237Z" fill="#333D42" stroke="#384B54"/>
</g>
<defs>
<clipPath id="clip0_4_17">
<rect width="18" height="18" fill="white" transform="translate(0.000793457 0.500061)"/>
</clipPath>
</defs>
</svg>
