<svg width="18" height="19" viewBox="0 0 18 19" fill="none" xmlns="http://www.w3.org/2000/svg">
<path d="M17.4362 5.80665L17.4364 5.81009C17.4999 7.04227 17.5 8.25091 17.5 9.50006C17.5 9.65707 17.5002 9.81344 17.5004 9.96926C17.5018 11.0592 17.5031 12.1219 17.4367 13.1846L17.4366 13.1846L17.4362 13.1935C17.3749 14.5668 17.0613 15.6973 16.1293 16.6294L16.1271 16.6315C15.2096 17.5604 14.069 17.8749 12.6934 17.9363L12.69 17.9364C11.4578 18 10.2491 18.0001 9 18.0001C7.75085 18.0001 6.54221 18 5.31003 17.9364L5.30658 17.9363C3.93329 17.875 2.80274 17.5614 1.8707 16.6294L1.86852 16.6272C0.93963 15.7096 0.625197 14.569 0.563788 13.1935L0.5638 13.1935L0.563623 13.19C0.500108 11.9578 0.5 10.7492 0.5 9.50006C0.5 8.25091 0.500108 7.04227 0.563623 5.81009L0.563635 5.81009L0.563788 5.80665C0.625096 4.43335 0.938649 3.3028 1.8707 2.37076L1.8707 2.37076L1.87286 2.36858C2.79042 1.43969 3.93103 1.12526 5.30658 1.06385L5.30659 1.06386L5.31002 1.06368C6.54221 1.00017 7.75085 1.00006 9 1.00006C10.2491 1.00006 11.4578 1.00017 12.69 1.06368L12.69 1.0637L12.6934 1.06385C14.0667 1.12516 15.1973 1.43871 16.1293 2.37076L16.1315 2.37292C17.0604 3.29048 17.3748 4.43109 17.4362 5.80665ZM13.8086 6.27149H14.0157L14.0408 6.24634C14.1711 6.22953 14.2989 6.19597 14.4211 6.14624C14.6135 6.06801 14.7878 5.95142 14.9336 5.80361C15.0814 5.65786 15.198 5.48352 15.2762 5.29121C15.3543 5.09907 15.3926 4.89306 15.3886 4.68572C15.3855 3.80801 14.6871 3.11149 13.8086 3.11149C12.9281 3.11149 12.2286 3.81106 12.2286 4.69149C12.2286 5.57579 12.9449 6.27149 13.8086 6.27149ZM6.50429 9.50006C6.50429 8.12909 7.61897 7.00435 9 7.00435C10.3696 7.00435 11.4957 8.13049 11.4957 9.50006C11.4957 10.8696 10.3696 11.9958 9 11.9958C7.63043 11.9958 6.50429 10.8696 6.50429 9.50006ZM3.88429 9.50006C3.88429 12.3348 6.16529 14.6158 9 14.6158C11.8347 14.6158 14.1157 12.3348 14.1157 9.50006C14.1157 6.66535 11.8347 4.38435 9 4.38435C6.16529 4.38435 3.88429 6.66535 3.88429 9.50006Z" fill="#333D42" stroke="#384B54"/>
</svg>
