<svg width="151" height="35" viewBox="0 0 151 35" fill="none" xmlns="http://www.w3.org/2000/svg">
<path d="M5.69761 1.70226H13.409L7.71142 33.2016H0L4.61865 8.81966H11.4405L5.69761 1.70226Z" fill="white"/>
<path d="M13.9083 33.2016L19.6059 1.75035H34.6358C39.1218 1.75035 42.5109 3.22513 44.803 6.17468C47.0952 9.12423 47.8319 12.9394 47.0133 17.6202C46.162 22.269 44.0663 26.0361 40.7263 28.9215C37.4191 31.7749 33.4897 33.2016 28.9382 33.2016H13.9083ZM22.8967 26.0842H29.6749C32.2618 26.0842 34.3902 25.3307 36.0602 23.8239C37.7302 22.3171 38.8107 20.169 39.3019 17.3798C39.8258 14.6226 39.5147 12.5066 38.3687 11.0318C37.2554 9.52499 35.4053 8.77157 32.8184 8.77157H26.0402L22.8967 26.0842Z" fill="white"/>
<path d="M55.1468 1.75035H80.1312L78.8541 8.81966H61.5812L60.648 13.9653H72.4034L71.1263 21.0347H59.3709L58.4377 26.1322H77.075L75.7979 33.2016H49.4492L55.1468 1.75035Z" fill="white"/>
<path d="M110.873 24.4491C110.316 27.591 108.63 30.0596 105.814 31.855C103.031 33.6183 99.5761 34.5 95.4502 34.5C91.6191 34.5 88.5247 33.6344 86.1671 31.9031C83.8422 30.1719 82.4505 27.591 81.9921 24.1605L89.7035 22.6697C90.5549 25.6193 92.8961 27.0941 96.7273 27.0941C98.4955 27.0941 99.969 26.8536 101.148 26.3727C102.327 25.8918 102.982 25.2346 103.113 24.401C103.178 24.0483 103.145 23.7277 103.014 23.4392C102.916 23.1506 102.67 22.8942 102.278 22.6697C101.917 22.4453 101.557 22.269 101.197 22.1407C100.87 21.9804 100.329 21.8201 99.5761 21.6598C98.8557 21.4995 98.2499 21.3873 97.7588 21.3232C97.3003 21.227 96.5799 21.0988 95.5976 20.9385C95.4339 20.9385 95.3029 20.9224 95.2047 20.8904C87.2149 19.608 83.7276 16.1775 84.7427 10.599C85.2993 7.48915 86.9529 5.03654 89.7035 3.24116C92.4868 1.41372 95.9578 0.5 100.116 0.5C103.915 0.5 106.944 1.31754 109.203 2.95262C111.495 4.58769 112.821 7.04031 113.182 10.3105L105.568 11.8013C105.044 9.20438 102.851 7.90594 98.9867 7.90594C97.1202 7.90594 95.5976 8.16242 94.4188 8.67539C93.24 9.15629 92.5851 9.81353 92.4541 10.6471C92.2904 11.6089 92.7815 12.3142 93.9276 12.7631C95.0737 13.2119 97.1366 13.6928 100.116 14.2058C100.215 14.2379 100.28 14.2539 100.313 14.2539C101.524 14.4783 102.621 14.7348 103.604 15.0233C104.619 15.3119 105.65 15.7287 106.698 16.2737C107.779 16.8187 108.646 17.4439 109.301 18.1492C109.956 18.8225 110.447 19.7041 110.775 20.7942C111.102 21.8843 111.135 23.1025 110.873 24.4491Z" fill="white"/>
<path d="M134.84 20.5537L151 1.75035H142.355L132.434 13.2921L131.55 15.4562H130.911L130.764 13.2921L125.066 1.75035H116.323L125.803 20.5537H126.49L124.182 33.2016H131.942L134.251 20.5537H134.84Z" fill="white"/>
</svg>
