<svg width="112" height="112" viewBox="0 0 112 112" fill="none" xmlns="http://www.w3.org/2000/svg">
<g id="ph:arrow-up-left-light">
<path id="Vector" d="M26.145 85.855C26.6372 86.3466 27.3044 86.6227 28 86.6227C28.6956 86.6227 29.3628 86.3466 29.855 85.855L81.375 34.335V73.5C81.375 74.1962 81.6516 74.8639 82.1438 75.3562C82.6361 75.8484 83.3038 76.125 84 76.125C84.6962 76.125 85.3639 75.8484 85.8562 75.3562C86.3484 74.8639 86.625 74.1962 86.625 73.5V28C86.625 27.3038 86.3484 26.6361 85.8562 26.1438C85.3639 25.6516 84.6962 25.375 84 25.375H38.5C37.8038 25.375 37.1361 25.6516 36.6438 26.1438C36.1516 26.6361 35.875 27.3038 35.875 28C35.875 28.6962 36.1516 29.3639 36.6438 29.8562C37.1361 30.3484 37.8038 30.625 38.5 30.625H77.665L26.145 82.145C25.6534 82.6372 25.3773 83.3044 25.3773 84C25.3773 84.6956 25.6534 85.3628 26.145 85.855Z" fill="white"/>
</g>
</svg>
